<svg width="17" height="17" viewBox="0 0 17 17" fill="none" xmlns="http://www.w3.org/2000/svg">
<path d="M6.48634 14.7134V12.5411C6.48633 11.9886 6.93677 11.5397 7.49486 11.536H9.53917C10.0999 11.536 10.5545 11.986 10.5545 12.5411V14.7201C10.5544 15.1893 10.9326 15.5727 11.4063 15.5837H12.7692C14.1278 15.5837 15.2291 14.4933 15.2291 13.1483V6.96879C15.2219 6.43966 14.9709 5.94278 14.5477 5.61956L9.8867 1.90241C9.07014 1.25518 7.90937 1.25518 7.09282 1.90241L2.45225 5.6263C2.02741 5.94822 1.77605 6.44592 1.77081 6.97554V13.1483C1.77081 14.4933 2.87218 15.5837 4.23079 15.5837H5.59366C6.07915 15.5837 6.47271 15.194 6.47271 14.7134" stroke="#D8AB5B" stroke-width="1.5" stroke-linecap="round" stroke-linejoin="round"/>
</svg>
