<svg width="17" height="17" viewBox="0 0 17 17" fill="none" xmlns="http://www.w3.org/2000/svg">
<g clip-path="url(#clip0_344_33598)">
<path fill-rule="evenodd" clip-rule="evenodd" d="M13.5089 13.5081C11.3441 15.6732 8.13861 16.1409 5.5154 14.9278C5.12815 14.7718 4.81066 14.6458 4.50883 14.6458C3.66812 14.6508 2.62168 15.466 2.07782 14.9228C1.53395 14.3788 2.34975 13.3316 2.34975 12.4858C2.34975 12.1839 2.22873 11.8721 2.07283 11.4841C0.859109 8.86131 1.32751 5.65473 3.49229 3.49043C6.25574 0.725965 10.7454 0.725965 13.5089 3.48972C16.2773 6.25845 16.2723 10.7444 13.5089 13.5081Z" stroke="#D8AB5B" stroke-width="1.5" stroke-linecap="round" stroke-linejoin="round"/>
<path d="M11.2904 8.79297H11.2968" stroke="#D8AB5B" stroke-width="2" stroke-linecap="round" stroke-linejoin="round"/>
<path d="M8.45074 8.79297H8.45712" stroke="#D8AB5B" stroke-width="2" stroke-linecap="round" stroke-linejoin="round"/>
<path d="M5.61102 8.79297H5.6174" stroke="#D8AB5B" stroke-width="2" stroke-linecap="round" stroke-linejoin="round"/>
</g>
<defs>
<clipPath id="clip0_344_33598">
<rect width="17" height="17" fill="white"/>
</clipPath>
</defs>
</svg>
