<svg width="17" height="17" viewBox="0 0 17 17" fill="none" xmlns="http://www.w3.org/2000/svg">
<g clip-path="url(#clip0_293_2898)">
<path fill-rule="evenodd" clip-rule="evenodd" d="M12.2385 9.83833C12.7164 9.83833 13.1176 10.2328 13.0445 10.7047C12.6158 13.4814 10.2388 15.543 7.37187 15.543C4.20003 15.543 1.62915 12.9721 1.62915 9.80105C1.62915 7.18841 3.61397 4.75473 5.84858 4.20447C6.32876 4.08591 6.82086 4.42368 6.82086 4.91802C6.82086 8.26732 6.93345 9.13372 7.56946 9.60495C8.20547 10.0762 8.95332 9.83833 12.2385 9.83833Z" stroke="#D8AB5B" stroke-width="1.5" stroke-linecap="round" stroke-linejoin="round"/>
<path fill-rule="evenodd" clip-rule="evenodd" d="M15.3655 7.04885C15.4035 4.89701 12.7603 1.42841 9.53928 1.48806C9.28876 1.49254 9.08819 1.70131 9.077 1.95109C8.99573 3.72043 9.10534 6.0132 9.16648 7.05258C9.18512 7.37618 9.43937 7.63043 9.76222 7.64907C10.8307 7.71021 13.207 7.79372 14.951 7.52977C15.1881 7.49398 15.3618 7.2882 15.3655 7.04885Z" stroke="#D8AB5B" stroke-width="1.5" stroke-linecap="round" stroke-linejoin="round"/>
</g>
<defs>
<clipPath id="clip0_293_2898">
<rect width="17" height="17" fill="white"/>
</clipPath>
</defs>
</svg>
