<svg width="17" height="17" viewBox="0 0 17 17" fill="none" xmlns="http://www.w3.org/2000/svg">
<path fill-rule="evenodd" clip-rule="evenodd" d="M2.125 4.60417C2.125 2.74464 2.14491 2.125 4.60417 2.125C7.06342 2.125 7.08333 2.74464 7.08333 4.60417C7.08333 6.46369 7.09118 7.08333 4.60417 7.08333C2.11716 7.08333 2.125 6.46369 2.125 4.60417Z" stroke="#D8AB5B" stroke-width="1.5" stroke-linecap="round" stroke-linejoin="round"/>
<path fill-rule="evenodd" clip-rule="evenodd" d="M9.91669 4.60417C9.91669 2.74464 9.9366 2.125 12.3959 2.125C14.8551 2.125 14.875 2.74464 14.875 4.60417C14.875 6.46369 14.8829 7.08333 12.3959 7.08333C9.90884 7.08333 9.91669 6.46369 9.91669 4.60417Z" stroke="#D8AB5B" stroke-width="1.5" stroke-linecap="round" stroke-linejoin="round"/>
<path fill-rule="evenodd" clip-rule="evenodd" d="M2.125 12.3962C2.125 10.5366 2.14491 9.91699 4.60417 9.91699C7.06342 9.91699 7.08333 10.5366 7.08333 12.3962C7.08333 14.2557 7.09118 14.8753 4.60417 14.8753C2.11716 14.8753 2.125 14.2557 2.125 12.3962Z" stroke="#D8AB5B" stroke-width="1.5" stroke-linecap="round" stroke-linejoin="round"/>
<path fill-rule="evenodd" clip-rule="evenodd" d="M9.91669 12.3962C9.91669 10.5366 9.9366 9.91699 12.3959 9.91699C14.8551 9.91699 14.875 10.5366 14.875 12.3962C14.875 14.2557 14.8829 14.8753 12.3959 14.8753C9.90884 14.8753 9.91669 14.2557 9.91669 12.3962Z" stroke="#D8AB5B" stroke-width="1.5" stroke-linecap="round" stroke-linejoin="round"/>
</svg>
