<svg width="17" height="17" viewBox="0 0 17 17" fill="none" xmlns="http://www.w3.org/2000/svg">
<path d="M8.49658 11.8136V10.0166" stroke="#D8AB5B" stroke-width="1.5" stroke-linecap="round" stroke-linejoin="round"/>
<path fill-rule="evenodd" clip-rule="evenodd" d="M12.8845 3.77637C14.0816 3.77637 15.045 4.74678 15.045 5.94387V8.38053C13.3025 9.40053 11.0004 10.0168 8.49288 10.0168C5.98538 10.0168 3.69038 9.40053 1.94788 8.38053V5.93678C1.94788 4.7397 2.91829 3.77637 4.11538 3.77637H12.8845Z" stroke="#D8AB5B" stroke-width="1.5" stroke-linecap="round" stroke-linejoin="round"/>
<path d="M10.9757 3.77291V3.51366C10.9757 2.64949 10.2745 1.94824 9.41031 1.94824H7.58281C6.71865 1.94824 6.0174 2.64949 6.0174 3.51366V3.77291" stroke="#D8AB5B" stroke-width="1.5" stroke-linecap="round" stroke-linejoin="round"/>
<path d="M1.96521 10.9678L2.09908 12.745C2.18975 13.9428 3.18779 14.8686 4.38842 14.8686H12.6044C13.805 14.8686 14.803 13.9428 14.8937 12.745L15.0276 10.9678" stroke="#D8AB5B" stroke-width="1.5" stroke-linecap="round" stroke-linejoin="round"/>
</svg>
